{
  "accessors": [
    {
      "bufferView": 2,
      "componentType": 5126,
      "count": 30,
      "max": [
        1.1400500535964966,
        0.66204297542572021,
        0.87934201955795288
      ],
      "min": [
        -0.80976700782775879,
        -1.0133949518203735,
        0.67222297191619873
      ],
      "type": "VEC3"
    },
    {
      "bufferView": 2,
      "byteOffset": 360,
      "componentType": 5126,
      "count": 30,
      "max": [
        0.77428352832794189,
        -0.17993701994419098,
        -0.52408313751220703
      ],
      "min": [
        -0.77428352832794189,
        -0.8465578556060791,
        -0.7907831072807312
      ],
      "type": "VEC3"
    },
    {
      "bufferView": 3,
      "componentType": 5126,
      "count": 30,
      "max": [
        0.96432244777679443,
        0.97762030363082886,
        -0.0055881701409816742,
        1
      ],
      "min": [
        -0.96432268619537354,
        -0.31229469180107117,
        -0.79724937677383423,
        -1
      ],
      "type": "VEC4"
    },
    {
      "bufferView": 1,
      "componentType": 5126,
      "count": 30,
      "max": [
        0.90207499265670776,
        0.76710999011993408
      ],
      "min": [
        0.89587801694869995,
        0.75801897048950195
      ],
      "type": "VEC2"
    },
    {
      "bufferView": 0,
      "componentType": 5125,
      "count": 54,
      "max": [
        29
      ],
      "min": [
        0
      ],
      "type": "SCALAR"
    },
    {
      "bufferView": 2,
      "byteOffset": 720,
      "componentType": 5126,
      "count": 12496,
      "max": [
        3.4168729782104492,
        6.2557001113891602,
        9.9649057388305664
      ],
      "min": [
        -3.0865910053253174,
        -3.0591199398040771,
        0.0089889997616410255
      ],
      "type": "VEC3"
    },
    {
      "bufferView": 2,
      "byteOffset": 150672,
      "componentType": 5126,
      "count": 12496,
      "max": [
        1,
        0.9999847412109375,
        0.99985814094543457
      ],
      "min": [
        -1,
        -0.9999997615814209,
        -0.99997413158416748
      ],
      "type": "VEC3"
    },
    {
      "bufferView": 3,
      "byteOffset": 480,
      "componentType": 5126,
      "count": 12496,
      "max": [
        1,
        0.99999535083770752,
        0.99996685981750488,
        1
      ],
      "min": [
        -0.99978786706924438,
        -0.99985921382904053,
        -0.99990940093994141,
        -1
      ],
      "type": "VEC4"
    },
    {
      "bufferView": 1,
      "byteOffset": 240,
      "componentType": 5126,
      "count": 12496,
      "max": [
        0.99401301145553589,
        0.99548500776290894
      ],
      "min": [
        0.0024300001095980406,
        0.011342000216245651
      ],
      "type": "VEC2"
    },
    {
      "bufferView": 0,
      "byteOffset": 216,
      "componentType": 5125,
      "count": 62856,
      "max": [
        12495
      ],
      "min": [
        0
      ],
      "type": "SCALAR"
    }
  ],
  "asset": {
    "extras": {
      "author": "vet.doc (https://sketchfab.com/vet.doc)",
      "license": "CC-BY-4.0 (http://creativecommons.org/licenses/by/4.0/)",
      "source": "https://sketchfab.com/3d-models/mechanical-wasp-low-poly-91b15801303b49af8a07f8b34218add4",
      "title": "Mechanical wasp (Low poly)"
    },
    "generator": "Sketchfab-8.47.0",
    "version": "2.0"
  },
  "bufferViews": [
    {
      "buffer": 0,
      "byteLength": 251640,
      "byteOffset": 0,
      "name": "floatBufferViews",
      "target": 34963
    },
    {
      "buffer": 0,
      "byteLength": 100208,
      "byteOffset": 251640,
      "byteStride": 8,
      "name": "floatBufferViews",
      "target": 34962
    },
    {
      "buffer": 0,
      "byteLength": 300624,
      "byteOffset": 351848,
      "byteStride": 12,
      "name": "floatBufferViews",
      "target": 34962
    },
    {
      "buffer": 0,
      "byteLength": 200416,
      "byteOffset": 652472,
      "byteStride": 16,
      "name": "floatBufferViews",
      "target": 34962
    }
  ],
  "buffers": [
    {
      "byteLength": 852888,
      "uri": "scene.bin"
    }
  ],
  "images": [
    {
      "uri": "textures/lambert23SG_baseColor.png"
    },
    {
      "uri": "textures/lambert23SG_metallicRoughness.png"
    },
    {
      "uri": "textures/lambert23SG_emissive.png"
    },
    {
      "uri": "textures/lambert23SG_normal.png"
    }
  ],
  "materials": [
    {
      "alphaMode": "BLEND",
      "doubleSided": true,
      "emissiveFactor": [
        1,
        1,
        1
      ],
      "emissiveTexture": {
        "index": 2,
        "texCoord": 0
      },
      "name": "lambert23SG",
      "normalTexture": {
        "index": 3,
        "scale": 1,
        "texCoord": 0
      },
      "occlusionTexture": {
        "index": 1,
        "strength": 1,
        "texCoord": 0
      },
      "pbrMetallicRoughness": {
        "baseColorFactor": [
          1,
          1,
          1,
          1
        ],
        "baseColorTexture": {
          "index": 0,
          "texCoord": 0
        },
        "metallicFactor": 1,
        "metallicRoughnessTexture": {
          "index": 1,
          "texCoord": 0
        },
        "roughnessFactor": 1
      }
    }
  ],
  "meshes": [
    {
      "primitives": [
        {
          "attributes": {
            "NORMAL": 1,
            "POSITION": 0,
            "TANGENT": 2,
            "TEXCOORD_0": 3
          },
          "indices": 4,
          "material": 0,
          "mode": 4
        }
      ]
    },
    {
      "primitives": [
        {
          "attributes": {
            "NORMAL": 6,
            "POSITION": 5,
            "TANGENT": 7,
            "TEXCOORD_0": 8
          },
          "indices": 9,
          "material": 0,
          "mode": 4
        }
      ]
    }
  ],
  "nodes": [
    {
      "children": [
        1
      ],
      "name": "RootNode (gltf orientation matrix)",
      "rotation": [
        -0.70710678118654746,
        -0,
        -0,
        0.70710678118654757
      ]
    },
    {
      "children": [
        2
      ],
      "name": "RootNode (model correction matrix)"
    },
    {
      "children": [
        3,
        4
      ],
      "name": "Low_poly_Wasp.obj.cleaner.materialmerger.gles"
    },
    {
      "mesh": 0,
      "name": ""
    },
    {
      "mesh": 1,
      "name": ""
    }
  ],
  "samplers": [
    {
      "magFilter": 9729,
      "minFilter": 9987,
      "wrapS": 10497,
      "wrapT": 10497
    }
  ],
  "scene": 0,
  "scenes": [
    {
      "name": "OSG_Scene",
      "nodes": [
        0
      ]
    }
  ],
  "textures": [
    {
      "sampler": 0,
      "source": 0
    },
    {
      "sampler": 0,
      "source": 1
    },
    {
      "sampler": 0,
      "source": 2
    },
    {
      "sampler": 0,
      "source": 3
    }
  ]
}

