{
  "accessors": [
    {
      "bufferView": 2,
      "componentType": 5126,
      "count": 2366,
      "max": [
        1.3191680908203125,
        12.403841018676758,
        9.0650873184204102
      ],
      "min": [
        -1.6470947265625,
        8.3431062698364258,
        5.9388055801391602
      ],
      "type": "VEC3"
    },
    {
      "bufferView": 2,
      "byteOffset": 28392,
      "componentType": 5126,
      "count": 2366,
      "max": [
        0.99971598386764526,
        1,
        0.99971598386764526
      ],
      "min": [
        -0.99971592426300049,
        -1,
        -0.99971598386764526
      ],
      "type": "VEC3"
    },
    {
      "bufferView": 3,
      "componentType": 5126,
      "count": 2366,
      "max": [
        0.99986559152603149,
        0.99963641166687012,
        0.99999797344207764,
        1
      ],
      "min": [
        -0.99976503849029541,
        -0.99935650825500488,
        -0.99999421834945679,
        1
      ],
      "type": "VEC4"
    },
    {
      "bufferView": 1,
      "componentType": 5126,
      "count": 2366,
      "max": [
        1,
        0.98971980810165405
      ],
      "min": [
        0,
        0
      ],
      "type": "VEC2"
    },
    {
      "bufferView": 0,
      "componentType": 5125,
      "count": 11826,
      "max": [
        2365
      ],
      "min": [
        0
      ],
      "type": "SCALAR"
    }
  ],
  "asset": {
    "extras": {
      "author": "French Baguette (https://sketchfab.com/FrenchBaguette)",
      "license": "CC-BY-4.0 (http://creativecommons.org/licenses/by/4.0/)",
      "source": "https://sketchfab.com/models/f7fa7420fc6c488181964c182e8c5484",
      "title": "Painterly Egg-Flower (School Project)"
    },
    "generator": "Sketchfab-4.17.0",
    "version": "2.0"
  },
  "bufferViews": [
    {
      "buffer": 0,
      "byteLength": 47304,
      "byteOffset": 0,
      "name": "floatBufferViews",
      "target": 34963
    },
    {
      "buffer": 0,
      "byteLength": 18928,
      "byteOffset": 47304,
      "byteStride": 8,
      "name": "floatBufferViews",
      "target": 34962
    },
    {
      "buffer": 0,
      "byteLength": 56784,
      "byteOffset": 66232,
      "byteStride": 12,
      "name": "floatBufferViews",
      "target": 34962
    },
    {
      "buffer": 0,
      "byteLength": 37856,
      "byteOffset": 123016,
      "byteStride": 16,
      "name": "floatBufferViews",
      "target": 34962
    }
  ],
  "buffers": [
    {
      "byteLength": 160872,
      "uri": "scene.bin"
    }
  ],
  "extensionsUsed": [
    "KHR_materials_unlit"
  ],
  "images": [
    {
      "uri": "textures/A_Egg_baseColor.png"
    }
  ],
  "materials": [
    {
      "doubleSided": true,
      "emissiveFactor": [
        0,
        0,
        0
      ],
      "extensions": {
        "KHR_materials_unlit": {}
      },
      "name": "A_Egg",
      "pbrMetallicRoughness": {
        "baseColorFactor": [
          1,
          1,
          1,
          1
        ],
        "baseColorTexture": {
          "index": 0,
          "texCoord": 0
        },
        "metallicFactor": 0,
        "roughnessFactor": 1
      }
    }
  ],
  "meshes": [
    {
      "name": "PlantEgg4_A_Egg_0",
      "primitives": [
        {
          "attributes": {
            "NORMAL": 1,
            "POSITION": 0,
            "TANGENT": 2,
            "TEXCOORD_0": 3
          },
          "indices": 4,
          "material": 0,
          "mode": 4
        }
      ]
    }
  ],
  "nodes": [
    {
      "children": [
        1
      ],
      "name": "RootNode (gltf orientation matrix)",
      "rotation": [
        -0.70710678118654746,
        -0,
        -0,
        0.70710678118654757
      ]
    },
    {
      "children": [
        2
      ],
      "name": "RootNode (model correction matrix)"
    },
    {
      "children": [
        3
      ],
      "matrix": [
        1,
        0,
        0,
        0,
        0,
        0,
        1,
        0,
        0,
        -1,
        0,
        0,
        0,
        0,
        0,
        1
      ],
      "name": "7f7141fbc4ce4de486fdeb0c87ea8ee0.fbx"
    },
    {
      "children": [
        4
      ],
      "name": "RootNode"
    },
    {
      "children": [
        5
      ],
      "matrix": [
        1.8864641189575195,
        0,
        0,
        0,
        0,
        1.8855606255244943,
        0.058378074530156539,
        0,
        0,
        -0.058378074530156539,
        1.8855606255244943,
        0,
        -13.630663871765137,
        -8.1400890350341797,
        -5.2038211822509766,
        1
      ],
      "name": "PlantEgg4"
    },
    {
      "mesh": 0,
      "name": "PlantEgg4_A_Egg_0"
    }
  ],
  "samplers": [
    {
      "magFilter": 9729,
      "minFilter": 9987,
      "wrapS": 10497,
      "wrapT": 10497
    }
  ],
  "scene": 0,
  "scenes": [
    {
      "name": "OSG_Scene",
      "nodes": [
        0
      ]
    }
  ],
  "textures": [
    {
      "sampler": 0,
      "source": 0
    }
  ]
}

