{
  "accessors": [
    {
      "bufferView": 3,
      "componentType": 5126,
      "count": 20,
      "max": [
        20.076656341552734,
        26.359601974487305,
        21.109695434570312
      ],
      "min": [
        -20.076656341552734,
        -26.359598159790039,
        -21.109695434570312
      ],
      "type": "VEC3"
    },
    {
      "bufferView": 3,
      "byteOffset": 240,
      "componentType": 5126,
      "count": 20,
      "max": [
        -1.4904085077205309e-08,
        1,
        0
      ],
      "min": [
        -2.9808170154410618e-08,
        -1,
        0
      ],
      "type": "VEC3"
    },
    {
      "bufferView": 2,
      "componentType": 5126,
      "count": 20,
      "max": [
        0.95454502105712891,
        0.23619100451469421
      ],
      "min": [
        0.13636349141597748,
        0.23619100451469421
      ],
      "type": "VEC2"
    },
    {
      "bufferView": 1,
      "componentType": 5125,
      "count": 48,
      "max": [
        19
      ],
      "min": [
        0
      ],
      "type": "SCALAR"
    },
    {
      "bufferView": 3,
      "byteOffset": 480,
      "componentType": 5126,
      "count": 1447,
      "max": [
        27.758781433105469,
        60.507469177246094,
        29.036933898925781
      ],
      "min": [
        -27.880720138549805,
        -60.507476806640625,
        -29.036931991577148
      ],
      "type": "VEC3"
    },
    {
      "bufferView": 3,
      "byteOffset": 17844,
      "componentType": 5126,
      "count": 1447,
      "max": [
        1,
        1,
        0.95105791091918945
      ],
      "min": [
        -1,
        -1,
        -0.95105791091918945
      ],
      "type": "VEC3"
    },
    {
      "bufferView": 2,
      "byteOffset": 160,
      "componentType": 5126,
      "count": 1447,
      "max": [
        1,
        0.43301674723625183
      ],
      "min": [
        0.045454498380422592,
        0.23619100451469421
      ],
      "type": "VEC2"
    },
    {
      "bufferView": 1,
      "byteOffset": 192,
      "componentType": 5125,
      "count": 1932,
      "max": [
        1446
      ],
      "min": [
        0
      ],
      "type": "SCALAR"
    },
    {
      "bufferView": 3,
      "byteOffset": 35208,
      "componentType": 5126,
      "count": 895,
      "max": [
        27.351154327392578,
        64.796432495117188,
        29.036933898925781
      ],
      "min": [
        -27.880720138549805,
        -64.796440124511719,
        -29.036931991577148
      ],
      "type": "VEC3"
    },
    {
      "bufferView": 3,
      "byteOffset": 45948,
      "componentType": 5126,
      "count": 895,
      "max": [
        1,
        1,
        1
      ],
      "min": [
        -1,
        -1,
        -1
      ],
      "type": "VEC3"
    },
    {
      "bufferView": 2,
      "byteOffset": 11736,
      "componentType": 5126,
      "count": 895,
      "max": [
        0.95454525947570801,
        0.47238200902938843
      ],
      "min": [
        0.045454498380422592,
        0.23619100451469421
      ],
      "type": "VEC2"
    },
    {
      "bufferView": 1,
      "byteOffset": 7920,
      "componentType": 5125,
      "count": 1326,
      "max": [
        894
      ],
      "min": [
        0
      ],
      "type": "SCALAR"
    },
    {
      "bufferView": 3,
      "byteOffset": 56688,
      "componentType": 5126,
      "count": 30,
      "max": [
        25.343973159790039,
        40.908901214599609,
        25.363813400268555
      ],
      "min": [
        -22.901229858398438,
        -40.908897399902344,
        -25.363811492919922
      ],
      "type": "VEC3"
    },
    {
      "bufferView": 3,
      "byteOffset": 57048,
      "componentType": 5126,
      "count": 30,
      "max": [
        0.98224610090255737,
        0.18759690225124359,
        0.93417173624038696
      ],
      "min": [
        -0.79464960098266602,
        -0.18759709596633911,
        -0.93417173624038696
      ],
      "type": "VEC3"
    },
    {
      "bufferView": 2,
      "byteOffset": 18896,
      "componentType": 5126,
      "count": 30,
      "max": [
        0.8409082293510437,
        0.27555599808692932
      ],
      "min": [
        0.068181745707988739,
        0.23619100451469421
      ],
      "type": "VEC2"
    },
    {
      "bufferView": 1,
      "byteOffset": 13224,
      "componentType": 5125,
      "count": 30,
      "max": [
        29
      ],
      "min": [
        0
      ],
      "type": "SCALAR"
    },
    {
      "bufferView": 3,
      "byteOffset": 57408,
      "componentType": 5126,
      "count": 24,
      "max": [
        8.4861555099487305,
        8.4861555099487305,
        8.4861555099487305
      ],
      "min": [
        -8.4861555099487305,
        -8.4861555099487305,
        -8.4861555099487305
      ],
      "type": "VEC3"
    },
    {
      "bufferView": 3,
      "byteOffset": 57696,
      "componentType": 5126,
      "count": 24,
      "max": [
        1,
        1,
        1
      ],
      "min": [
        -1,
        -1,
        -1
      ],
      "type": "VEC3"
    },
    {
      "bufferView": 2,
      "byteOffset": 19136,
      "componentType": 5126,
      "count": 24,
      "max": [
        0.875,
        1
      ],
      "min": [
        0.125,
        0
      ],
      "type": "VEC2"
    },
    {
      "bufferView": 1,
      "byteOffset": 13344,
      "componentType": 5125,
      "count": 36,
      "max": [
        23
      ],
      "min": [
        0
      ],
      "type": "SCALAR"
    },
    {
      "bufferView": 3,
      "byteOffset": 57984,
      "componentType": 5126,
      "count": 136,
      "max": [
        20.076658248901367,
        26.359601974487305,
        21.109697341918945
      ],
      "min": [
        -20.076658248901367,
        -26.359598159790039,
        -21.109697341918945
      ],
      "type": "VEC3"
    },
    {
      "bufferView": 3,
      "byteOffset": 59616,
      "componentType": 5126,
      "count": 136,
      "max": [
        1,
        1,
        0.95105499029159546
      ],
      "min": [
        -1,
        -1,
        -0.95105499029159546
      ],
      "type": "VEC3"
    },
    {
      "bufferView": 2,
      "byteOffset": 19328,
      "componentType": 5126,
      "count": 136,
      "max": [
        0.95454502105712891,
        0.23619100451469421
      ],
      "min": [
        0.13636349141597748,
        0.23619100451469421
      ],
      "type": "VEC2"
    },
    {
      "bufferView": 1,
      "byteOffset": 13488,
      "componentType": 5125,
      "count": 240,
      "max": [
        135
      ],
      "min": [
        0
      ],
      "type": "SCALAR"
    },
    {
      "bufferView": 5,
      "componentType": 5126,
      "count": 3,
      "max": [
        1,
        1.0706202036315472e-25,
        0,
        0,
        0,
        1,
        0,
        0,
        0,
        1.2246467905466219e-18,
        1,
        0,
        0,
        0,
        0,
        1
      ],
      "min": [
        0.0099999997764825821,
        0,
        -8.7422774575074413e-10,
        0,
        -1.2037153808550179e-41,
        -0.0099999997764825821,
        -1.2246467905466219e-18,
        0,
        -8.7422774575074413e-10,
        0,
        -0.0099999997764825821,
        0,
        0,
        0,
        0,
        1
      ],
      "type": "MAT4"
    },
    {
      "bufferView": 0,
      "componentType": 5123,
      "count": 20,
      "max": [
        1,
        1,
        1,
        1
      ],
      "min": [
        1,
        1,
        1,
        1
      ],
      "type": "VEC4"
    },
    {
      "bufferView": 4,
      "componentType": 5126,
      "count": 20,
      "max": [
        1,
        0,
        0,
        0
      ],
      "min": [
        1,
        0,
        0,
        0
      ],
      "type": "VEC4"
    },
    {
      "bufferView": 0,
      "byteOffset": 160,
      "componentType": 5123,
      "count": 1447,
      "max": [
        1,
        1,
        1,
        1
      ],
      "min": [
        1,
        1,
        1,
        1
      ],
      "type": "VEC4"
    },
    {
      "bufferView": 4,
      "byteOffset": 320,
      "componentType": 5126,
      "count": 1447,
      "max": [
        1,
        0,
        0,
        0
      ],
      "min": [
        1,
        0,
        0,
        0
      ],
      "type": "VEC4"
    },
    {
      "bufferView": 0,
      "byteOffset": 11736,
      "componentType": 5123,
      "count": 895,
      "max": [
        1,
        1,
        1,
        1
      ],
      "min": [
        1,
        1,
        1,
        1
      ],
      "type": "VEC4"
    },
    {
      "bufferView": 4,
      "byteOffset": 23472,
      "componentType": 5126,
      "count": 895,
      "max": [
        1,
        0,
        0,
        0
      ],
      "min": [
        1,
        0,
        0,
        0
      ],
      "type": "VEC4"
    },
    {
      "bufferView": 0,
      "byteOffset": 18896,
      "componentType": 5123,
      "count": 30,
      "max": [
        1,
        1,
        1,
        1
      ],
      "min": [
        1,
        1,
        1,
        1
      ],
      "type": "VEC4"
    },
    {
      "bufferView": 4,
      "byteOffset": 37792,
      "componentType": 5126,
      "count": 30,
      "max": [
        1,
        0,
        0,
        0
      ],
      "min": [
        1,
        0,
        0,
        0
      ],
      "type": "VEC4"
    },
    {
      "bufferView": 0,
      "byteOffset": 19136,
      "componentType": 5123,
      "count": 24,
      "max": [
        2,
        2,
        2,
        2
      ],
      "min": [
        2,
        2,
        2,
        2
      ],
      "type": "VEC4"
    },
    {
      "bufferView": 4,
      "byteOffset": 38272,
      "componentType": 5126,
      "count": 24,
      "max": [
        1,
        0,
        0,
        0
      ],
      "min": [
        1,
        0,
        0,
        0
      ],
      "type": "VEC4"
    },
    {
      "bufferView": 0,
      "byteOffset": 19328,
      "componentType": 5123,
      "count": 136,
      "max": [
        1,
        1,
        1,
        1
      ],
      "min": [
        1,
        1,
        1,
        1
      ],
      "type": "VEC4"
    },
    {
      "bufferView": 4,
      "byteOffset": 38656,
      "componentType": 5126,
      "count": 136,
      "max": [
        1,
        0,
        0,
        0
      ],
      "min": [
        1,
        0,
        0,
        0
      ],
      "type": "VEC4"
    },
    {
      "bufferView": 6,
      "componentType": 5126,
      "count": 198,
      "max": [
        4.125
      ],
      "min": [
        0
      ],
      "type": "SCALAR"
    },
    {
      "bufferView": 7,
      "componentType": 5126,
      "count": 198,
      "max": [
        0,
        0.15223108232021332,
        6.6174449004242214e-24
      ],
      "min": [
        0,
        -0.15261648595333099,
        -6.6174449004242214e-24
      ],
      "type": "VEC3"
    },
    {
      "bufferView": 6,
      "byteOffset": 792,
      "componentType": 5126,
      "count": 198,
      "max": [
        4.125
      ],
      "min": [
        0
      ],
      "type": "SCALAR"
    },
    {
      "bufferView": 8,
      "componentType": 5126,
      "count": 198,
      "max": [
        1,
        4.3082127252938145e-17,
        1,
        8.6532098415556172e-17
      ],
      "min": [
        -0.6988823413848877,
        -8.6589815769977672e-17,
        -0.70358449220657349,
        -8.6589815769977672e-17
      ],
      "type": "VEC4"
    },
    {
      "bufferView": 6,
      "byteOffset": 1584,
      "componentType": 5126,
      "count": 198,
      "max": [
        4.125
      ],
      "min": [
        0
      ],
      "type": "SCALAR"
    },
    {
      "bufferView": 7,
      "byteOffset": 2376,
      "componentType": 5126,
      "count": 198,
      "max": [
        0,
        6.6174449004242214e-24,
        0.25
      ],
      "min": [
        0,
        -6.6174449004242214e-24,
        -0.25
      ],
      "type": "VEC3"
    }
  ],
  "animations": [
    {
      "channels": [
        {
          "sampler": 0,
          "target": {
            "node": 21,
            "path": "translation"
          }
        },
        {
          "sampler": 1,
          "target": {
            "node": 21,
            "path": "rotation"
          }
        },
        {
          "sampler": 2,
          "target": {
            "node": 20,
            "path": "translation"
          }
        }
      ],
      "name": "General|Capsule_Idle",
      "samplers": [
        {
          "input": 37,
          "interpolation": "LINEAR",
          "output": 38
        },
        {
          "input": 39,
          "interpolation": "LINEAR",
          "output": 40
        },
        {
          "input": 41,
          "interpolation": "LINEAR",
          "output": 42
        }
      ]
    }
  ],
  "asset": {
    "extras": {
      "author": "Ivan Vakulko (https://sketchfab.com/milos4)",
      "license": "CC-BY-4.0 (http://creativecommons.org/licenses/by/4.0/)",
      "source": "https://sketchfab.com/3d-models/space-capsule-with-energy-cube-3d-4b9ec469ba6046bba7eebb6d7c157ac5",
      "title": "Space capsule with energy cube 3D"
    },
    "generator": "Sketchfab-7.51.0",
    "version": "2.0"
  },
  "bufferViews": [
    {
      "buffer": 0,
      "byteLength": 20416,
      "byteOffset": 0,
      "byteStride": 8,
      "name": "shortBufferViews",
      "target": 34962
    },
    {
      "buffer": 0,
      "byteLength": 14448,
      "byteOffset": 20416,
      "name": "floatBufferViews",
      "target": 34963
    },
    {
      "buffer": 0,
      "byteLength": 20416,
      "byteOffset": 34864,
      "byteStride": 8,
      "name": "floatBufferViews",
      "target": 34962
    },
    {
      "buffer": 0,
      "byteLength": 61248,
      "byteOffset": 55280,
      "byteStride": 12,
      "name": "floatBufferViews",
      "target": 34962
    },
    {
      "buffer": 0,
      "byteLength": 40832,
      "byteOffset": 116528,
      "byteStride": 16,
      "name": "floatBufferViews",
      "target": 34962
    },
    {
      "buffer": 0,
      "byteLength": 192,
      "byteOffset": 157360,
      "byteStride": 64,
      "name": "floatBufferViews"
    },
    {
      "buffer": 0,
      "byteLength": 2376,
      "byteOffset": 157552,
      "name": "floatBufferViews"
    },
    {
      "buffer": 0,
      "byteLength": 4752,
      "byteOffset": 159928,
      "byteStride": 12,
      "name": "floatBufferViews"
    },
    {
      "buffer": 0,
      "byteLength": 3168,
      "byteOffset": 164680,
      "byteStride": 16,
      "name": "floatBufferViews"
    }
  ],
  "buffers": [
    {
      "byteLength": 167848,
      "uri": "scene.bin"
    }
  ],
  "materials": [
    {
      "alphaMode": "BLEND",
      "doubleSided": true,
      "name": "glass",
      "pbrMetallicRoughness": {
        "baseColorFactor": [
          0.80000000000000004,
          0.80000000000000004,
          0.80000000000000004,
          0
        ],
        "metallicFactor": 1,
        "roughnessFactor": 0.76000000000000001
      }
    },
    {
      "doubleSided": true,
      "emissiveFactor": [
        0,
        0,
        0
      ],
      "name": "general",
      "pbrMetallicRoughness": {
        "baseColorFactor": [
          0.34238400000000002,
          0.320299,
          0.32996999999999999,
          1
        ],
        "metallicFactor": 0.52610518292682928,
        "roughnessFactor": 0.28487042682926833
      }
    },
    {
      "doubleSided": true,
      "emissiveFactor": [
        0,
        0,
        0
      ],
      "name": "general2",
      "pbrMetallicRoughness": {
        "baseColorFactor": [
          0.18446899999999999,
          0.18446899999999999,
          0.18446899999999999,
          1
        ],
        "metallicFactor": 0.83098323170731703,
        "roughnessFactor": 0.80316310975609762
      }
    },
    {
      "doubleSided": true,
      "emissiveFactor": [
        0,
        1,
        1
      ],
      "name": "Material",
      "pbrMetallicRoughness": {
        "baseColorFactor": [
          0,
          1,
          1,
          1
        ],
        "metallicFactor": 0,
        "roughnessFactor": 0.80404082060000004
      }
    }
  ],
  "meshes": [
    {
      "name": "Capsule_glass_0",
      "primitives": [
        {
          "attributes": {
            "JOINTS_0": 25,
            "NORMAL": 1,
            "POSITION": 0,
            "TEXCOORD_0": 2,
            "WEIGHTS_0": 26
          },
          "indices": 3,
          "material": 0,
          "mode": 4
        }
      ]
    },
    {
      "name": "Capsule_general_0",
      "primitives": [
        {
          "attributes": {
            "JOINTS_0": 27,
            "NORMAL": 5,
            "POSITION": 4,
            "TEXCOORD_0": 6,
            "WEIGHTS_0": 28
          },
          "indices": 7,
          "material": 1,
          "mode": 4
        }
      ]
    },
    {
      "name": "Capsule_general2_0",
      "primitives": [
        {
          "attributes": {
            "JOINTS_0": 29,
            "NORMAL": 9,
            "POSITION": 8,
            "TEXCOORD_0": 10,
            "WEIGHTS_0": 30
          },
          "indices": 11,
          "material": 2,
          "mode": 4
        }
      ]
    },
    {
      "name": "Capsule_Material_0",
      "primitives": [
        {
          "attributes": {
            "JOINTS_0": 31,
            "NORMAL": 13,
            "POSITION": 12,
            "TEXCOORD_0": 14,
            "WEIGHTS_0": 32
          },
          "indices": 15,
          "material": 3,
          "mode": 4
        }
      ]
    },
    {
      "name": "Cube_Material_0",
      "primitives": [
        {
          "attributes": {
            "JOINTS_0": 33,
            "NORMAL": 17,
            "POSITION": 16,
            "TEXCOORD_0": 18,
            "WEIGHTS_0": 34
          },
          "indices": 19,
          "material": 3,
          "mode": 4
        }
      ]
    },
    {
      "name": "glass_glass_0",
      "primitives": [
        {
          "attributes": {
            "JOINTS_0": 35,
            "NORMAL": 21,
            "POSITION": 20,
            "TEXCOORD_0": 22,
            "WEIGHTS_0": 36
          },
          "indices": 23,
          "material": 0,
          "mode": 4
        }
      ]
    }
  ],
  "nodes": [
    {
      "children": [
        1
      ],
      "name": "RootNode (gltf orientation matrix)",
      "rotation": [
        -0.70710678118654746,
        -0,
        -0,
        0.70710678118654757
      ]
    },
    {
      "children": [
        2
      ],
      "name": "RootNode (model correction matrix)"
    },
    {
      "children": [
        3
      ],
      "matrix": [
        1,
        0,
        0,
        0,
        0,
        0,
        1,
        0,
        0,
        -1,
        0,
        0,
        0,
        0,
        0,
        1
      ],
      "name": "97d3907fb10045b39216e13882c21e33.fbx"
    },
    {
      "children": [
        4
      ],
      "name": ""
    },
    {
      "children": [
        5,
        6,
        7,
        8,
        22,
        24
      ],
      "name": "RootNode"
    },
    {
      "name": "Capsule",
      "scale": [
        0.25592008233070374,
        0.25592008233070374,
        0.25592008233070374
      ],
      "translation": [
        3.3120778653028538e-07,
        4.1904004319803789e-06,
        4.2789972098944418e-07
      ]
    },
    {
      "name": "Cube",
      "scale": [
        0.084861554205417633,
        0.084861554205417633,
        0.084861554205417633
      ]
    },
    {
      "name": "glass",
      "scale": [
        0.25592008233070374,
        0.25592008233070374,
        0.25592008233070374
      ],
      "translation": [
        3.3120778653028538e-07,
        4.1904004319803789e-06,
        4.2789972098944418e-07
      ]
    },
    {
      "children": [
        9
      ],
      "name": "General",
      "rotation": [
        -0.7071068286895752,
        0,
        0,
        0.70710670948028564
      ],
      "scale": [
        100,
        100,
        100
      ]
    },
    {
      "children": [
        10,
        12,
        13,
        14,
        15,
        17,
        19,
        11,
        16,
        18
      ],
      "name": ""
    },
    {
      "children": [
        20
      ],
      "name": "_rootJoint"
    },
    {
      "matrix": [
        0.25592008605599403,
        0,
        0,
        0,
        0,
        0.25592008605599403,
        0,
        0,
        0,
        0,
        0.25592008605599403,
        0,
        3.3120777231943066e-07,
        4.1904002046067035e-06,
        4.2789971566037366e-07,
        1
      ],
      "name": ""
    },
    {
      "mesh": 0,
      "name": "",
      "skin": 0
    },
    {
      "mesh": 1,
      "name": "",
      "skin": 0
    },
    {
      "mesh": 2,
      "name": "",
      "skin": 0
    },
    {
      "mesh": 3,
      "name": "",
      "skin": 0
    },
    {
      "matrix": [
        0.084861554205417633,
        0,
        0,
        0,
        0,
        0.084861554205417633,
        0,
        0,
        0,
        0,
        0.084861554205417633,
        0,
        0,
        0,
        0,
        1
      ],
      "name": ""
    },
    {
      "mesh": 4,
      "name": "",
      "skin": 0
    },
    {
      "matrix": [
        0.25592008605599403,
        0,
        0,
        0,
        0,
        0.25592008605599403,
        0,
        0,
        0,
        0,
        0.25592008605599403,
        0,
        3.3120777231943066e-07,
        4.1904002046067035e-06,
        4.2789971566037366e-07,
        1
      ],
      "name": ""
    },
    {
      "mesh": 5,
      "name": "",
      "skin": 0
    },
    {
      "children": [
        21
      ],
      "name": "Genral_armature_00",
      "rotation": [
        0.7071068286895752,
        0,
        0,
        0.70710670948028564
      ],
      "translation": [
        0,
        0,
        0.0019132643938064575
      ]
    },
    {
      "name": "Cube_armature_01",
      "rotation": [
        0.88334828615188599,
        -2.0488279517394403e-08,
        -0.46871718764305115,
        -3.8612380848235262e-08
      ],
      "translation": [
        0,
        -0.001359209418296814,
        0
      ]
    },
    {
      "children": [
        23
      ],
      "name": "Camera",
      "rotation": [
        -0.041959445923566818,
        0.66071444749832153,
        -0.047499921172857285,
        0.74795693159103394
      ],
      "scale": [
        100,
        100,
        100
      ],
      "translation": [
        -53.246528625488281,
        62.739097595214844,
        412.88986206054688
      ]
    },
    {
      "name": ""
    },
    {
      "children": [
        25
      ],
      "name": "Sun",
      "rotation": [
        0.040732812136411667,
        -0.042097851634025574,
        -0.32758736610412598,
        0.94300335645675659
      ],
      "scale": [
        100,
        100,
        99.999992370605469
      ]
    },
    {
      "children": [
        26
      ],
      "matrix": [
        1,
        0,
        0,
        0,
        0,
        2.2204460492503131e-16,
        1,
        0,
        0,
        -1,
        2.2204460492503131e-16,
        0,
        0,
        0,
        0,
        1
      ],
      "name": ""
    },
    {
      "name": ""
    }
  ],
  "scene": 0,
  "scenes": [
    {
      "name": "OSG_Scene",
      "nodes": [
        0
      ]
    }
  ],
  "skins": [
    {
      "inverseBindMatrices": 24,
      "joints": [
        10,
        20,
        21
      ],
      "skeleton": 10
    }
  ]
}

